<?xml version="1.0" encoding="UTF-8"?>
<!DOCTYPE svg PUBLIC "-//W3C//DTD SVG 1.1//EN" "http://www.w3.org/Graphics/SVG/1.1/DTD/svg11.dtd">
<!-- Creator: CorelDRAW -->
<svg xmlns="http://www.w3.org/2000/svg" xml:space="preserve" width="100mm" height="100mm" version="1.1" style="shape-rendering:geometricPrecision; text-rendering:geometricPrecision; image-rendering:optimizeQuality; fill-rule:evenodd; clip-rule:evenodd"
viewBox="0 0 10000 10000"
 xmlns:xlink="http://www.w3.org/1999/xlink"
 xmlns:xodm="http://www.corel.com/coreldraw/odm/2003">
 <defs>
  <style type="text/css">
   <![CDATA[
    .fil0 {fill:#282829}
   ]]>
  </style>
 </defs>
 <g id="Camada_x0020_1">
  <metadata id="CorelCorpID_0Corel-Layer"/>
  <g id="_2265568729504">
   <path class="fil0" d="M5153.29 1595.23c568.41,0 1029.18,461.34 1029.18,1030.46 0,569.12 -460.77,1030.46 -1029.18,1030.46 -568.41,0 -1029.19,-461.34 -1029.19,-1030.46 0,-569.12 460.78,-1030.46 1029.19,-1030.46zm0 251.34c429.76,0 778.15,348.83 778.15,779.12 0,430.29 -348.39,779.12 -778.15,779.12 -429.76,0 -778.15,-348.83 -778.15,-779.12 0,-430.29 348.39,-779.12 778.15,-779.12zm44.82 360.24c124.39,0 236.07,54.39 312.73,140.69 -23.26,-6.25 -47.69,-9.59 -72.9,-9.59 -154.8,0 -280.32,125.65 -280.32,280.64 0,154.99 125.52,280.65 280.32,280.65 31.07,0 60.95,-5.06 88.89,-14.42 -76.62,97.33 -195.38,159.79 -328.72,159.79 -231.04,0 -418.36,-187.54 -418.36,-418.88 0,-231.34 187.32,-418.88 418.36,-418.88z"/>
   <path class="fil0" d="M4251.02 4647.45c651.78,287.83 1028.43,925.1 1162.1,1652.67 146.69,-321.65 364.06,-547.89 866.01,-592.9 -173.5,-126.96 -398.88,-85.46 -740.16,-14.81 -408.14,-619.07 -820.56,-1038.54 -1287.95,-1044.96z"/>
   <path class="fil0" d="M4307.92 4396.72c543.65,-148.13 925.11,-20.63 1239.05,594.99 293.35,25.69 436.34,-162.25 505.74,-386.11 -1.18,477.23 -217.97,691.67 -606.89,696.26 -168.23,-569.6 -492.57,-891.48 -1137.9,-905.14z"/>
   <path class="fil0" d="M1368.86 1672.45c1342.55,2230.77 1469.69,3961.76 463.06,5226.49 84.2,702.5 199.85,1436.47 284.05,2138.97 -1980.31,-1310.1 -3220.42,-4538.46 -747.11,-7365.46z"/>
   <path class="fil0" d="M2508.16 3578.71c932.03,371.04 1135.58,727.44 1060.81,1518.48 971.95,378.78 1676.36,1383 1557.59,2549.35 -1002.38,340.14 -2528.11,9.22 -3095.25,-669.2 643.16,-968.3 892.88,-2005.05 476.85,-3398.63z"/>
   <path class="fil0" d="M2334.75 3090.99c-267.24,-554.44 -534.49,-1108.88 -801.73,-1663.31 2107.11,-1823.64 4012.71,-1676.09 5843.59,-798.16 -1719.28,-379.24 -3427.04,-401.67 -5041.86,2461.47z"/>
   <path class="fil0" d="M5754.69 1335.91c527.26,-316.69 2142.67,-371.81 2474.96,-122.37 1712.31,1174.51 2214.22,4049.22 1343.83,5918.09 221.45,-1748.69 -770.34,-4934.57 -3818.79,-5795.72z"/>
   <path class="fil0" d="M8424.58 4553.33c2028.03,2473.63 -10.33,5346.95 -3280.08,5447.2 1500.49,-581.93 3497.01,-2449.66 3280.08,-5447.2z"/>
  </g>
  <g id="_2265568730560">
   <path class="fil0" d="M-6097.25 -28803.89c568.41,0 1029.19,461.34 1029.19,1030.47 0,569.12 -460.78,1030.47 -1029.19,1030.47 -568.42,0 -1029.19,-461.35 -1029.19,-1030.47 0,-569.13 460.77,-1030.47 1029.19,-1030.47zm0 251.34c429.76,0 778.15,348.83 778.15,779.13 0,430.29 -348.39,779.12 -778.15,779.12 -429.76,0 -778.16,-348.83 -778.16,-779.12 0,-430.3 348.4,-779.13 778.16,-779.13zm44.82 360.25c124.39,0 236.07,54.38 312.73,140.68 -23.26,-6.25 -47.69,-9.59 -72.9,-9.59 -154.8,0 -280.31,125.66 -280.31,280.65 0,154.99 125.51,280.65 280.31,280.65 31.08,0 60.95,-5.06 88.89,-14.42 -76.61,97.32 -195.37,159.79 -328.72,159.79 -231.04,0 -418.36,-187.55 -418.36,-418.88 0,-231.34 187.32,-418.88 418.36,-418.88z"/>
   <path class="fil0" d="M-6999.52 -25751.66c651.78,287.84 1028.43,925.11 1162.1,1652.69 146.69,-321.66 364.07,-547.9 866.02,-592.91 -173.5,-126.95 -398.88,-85.46 -740.17,-14.81 -408.14,-619.07 -820.56,-1038.55 -1287.95,-1044.97z"/>
   <path class="fil0" d="M-6942.63 -26002.38c543.66,-148.13 925.13,-20.63 1239.06,594.99 293.36,25.69 436.34,-162.25 505.75,-386.11 -1.19,477.23 -217.98,691.67 -606.9,696.26 -168.23,-569.6 -492.57,-891.49 -1137.91,-905.14z"/>
   <path class="fil0" d="M-9881.7 -28726.67c1342.56,2230.78 1469.7,3961.78 463.06,5226.53 84.2,702.49 199.86,1436.47 284.05,2138.97 -1980.32,-1310.1 -3220.44,-4538.48 -747.11,-7365.5z"/>
   <path class="fil0" d="M-8742.39 -26820.39c932.03,371.03 1135.58,727.43 1060.81,1518.48 971.95,378.78 1676.37,1383.01 1557.61,2549.37 -1002.39,340.14 -2528.13,9.21 -3095.28,-669.21 643.17,-968.31 892.89,-2005.06 476.86,-3398.64z"/>
   <path class="fil0" d="M-8915.8 -27308.12c-267.24,-554.44 -534.5,-1108.88 -801.75,-1663.32 2107.14,-1823.66 4012.75,-1676.1 5843.63,-798.17 -1719.28,-379.24 -3427.05,-401.66 -5041.88,2461.49z"/>
   <path class="fil0" d="M-5495.85 -29063.21c527.27,-316.69 2142.69,-371.81 2474.97,-122.37 1712.33,1174.51 2214.24,4049.24 1343.85,5918.12 221.45,-1748.7 -770.35,-4934.59 -3818.82,-5795.75z"/>
   <path class="fil0" d="M-2825.94 -25845.77c2028.04,2473.64 -10.33,5346.98 -3280.1,5447.23 1500.5,-581.93 3497.03,-2449.67 3280.1,-5447.23z"/>
  </g>
 </g>
</svg>
